:SAMPLES-PER-SECOND 30
:FULLY-SPECIFIED
:DEGREES
1
root  34.98057869 36.51992618 -14.79477169 9.544109344 -0.6921637058 2.853399754
lowerback  -8.062829971 0.3536280096 1.329360008
upperback  -3.795269966 0.05807759985 -2.607274532
thorax  0.6015650034 -0.1574430019 -3.43772006
lowerneck  -15.33759975 2.232019901 1.70243001
upperneck  17.31119919 1.585170031 3.793960094
head  7.870389938 1.120419979 1.14526999
lclavicle  0 -4.497500157e-015 -2.743230041e-014
lhumerus  -44.3362999 25.2465992 71.12950134
lradius  -0.4475172758 -6.507048965e-006 28.75450134
lwrist  4.824992743e-007 -3.790274832e-007 -28.17340088
lhand  -4.413167194e-031 -36.85710144 -10.38479996
lfingers  90 7.125020027 -90
lthumb  94.73460718 -25.22747468 100.9968456
rclavicle  0 -4.497500157e-015 -2.743230041e-014
rhumerus  -46.17039871 -30.59989929 -65.14589691
rradius  -5.16745672e-007 2.214343908e-008 36.27109909
rwrist  1.129822067e-006 0.001802438172 -140.4730072
rhand  -3.535513218e-031 -2.854949951 -7.66711998
rfingers  -90 -7.125020027 -90
rthumb  -86.61206786 -7.981945253 -66.91035963
rfemur  -12.77919102 15.63622093 13.54802227
rtibia  -0.7985379696 0.4999321699 20.81028557
rfoot  -0.4274925888 -19.58868217 -39.23300934
rtoes  4.138733712 19.58426543 -102.1819001
lfemur  -10.14757347 -16.84179497 -18.44725609
ltibia  1.55077827 0.8077500463 15.97132683
lfoot  0.5379299521 -27.5501976 34.63409424
ltoes  -8.724062091 -18.06748907 -116.3255407
2
root  34.98398188 36.52076421 -14.79130092 9.569181442 -0.7157398462 2.840028524
lowerback  -8.073800087 0.3585880399 1.312680244
upperback  -3.773849964 0.0678222999 -2.607274532
thorax  0.6304029822 -0.1512030065 -3.43772006
lowerneck  -15.31809998 2.285320044 1.732069969
upperneck  17.17749977 1.658779979 3.814670086
head  7.821839809 1.160210013 1.14526999
lclavicle  0 -4.497500157e-015 -2.743230041e-014
lhumerus  -44.29119873 25.21339989 71.16950226
lradius  -0.4475172758 -6.507048965e-006 28.78649902
lwrist  4.824992743e-007 -3.790274832e-007 -28.13080025
lhand  -4.413426916e-031 -36.86159897 -10.43980026
lfingers  90 7.125020027 -90
lthumb  94.74829025 -25.28130286 101.0065857
rclavicle  0 -4.497500157e-015 -2.743230041e-014
rhumerus  -46.00540161 -30.45159721 -65.31369781
rradius  -5.16745672e-007 2.214343908e-008 36.40430069
rwrist  1.129822067e-006 0.001802438172 -140.9589996
rhand  -1.767945559e-031 -2.975209951 -7.610770226
rfingers  -90 -7.125020027 -90
rthumb  -86.61159503 -8.027599693 -67.02436996
rfemur  -12.77047348 15.60482502 13.5293417
rtibia  -0.7752016783 0.4852153063 20.74228287
rfoot  -0.3932029605 -19.59268761 -39.18720245
rtoes  4.186268932 19.57453898 -102.3237484
lfemur  -10.22155285 -16.78629112 -18.40962982
ltibia  1.510756493 0.8161106706 16.04808235
lfoot  0.5374498963 -27.60279846 34.58712006
ltoes  -8.726770532 -18.0662148 -116.3342741
3
root  34.98827116 36.5218125 -14.78702515 9.601811409 -0.7449529171 2.842551231
lowerback  -8.035630226 0.3669449985 1.313570499
upperback  -3.769939899 0.08004199713 -2.607274532
thorax  0.6142190099 -0.1449189931 -3.43772006
lowerneck  -15.30480003 2.330270052 1.798220038
upperneck  17.08099937 1.714619994 3.80569005
head  7.787789822 1.190739989 1.13646996
lclavicle  0 -4.497500157e-015 -2.743230041e-014
lhumerus  -44.27479935 25.14590073 71.21530151
lradius  -0.4475172758 -6.507048965e-006 28.86229897
lwrist  4.824992743e-007 -3.790274832e-007 -27.93659973
lhand  -4.412260932e-031 -36.84140015 -10.50790024
lfingers  90 7.125020027 -90
lthumb  94.7532762 -25.34888405 100.9911416
rclavicle  0 -4.497500157e-015 -2.743230041e-014
rhumerus  -45.84569931 -30.03369904 -65.646698
rradius  -5.16745672e-007 2.214343908e-008 36.66730118
rwrist  1.129822067e-006 0.001802438172 -141.6730042
rhand  -1.767802125e-031 -2.884380102 -7.58355999
rfingers  -90 -7.125020027 -90
rthumb  -86.58434033 -8.057315508 -66.93446639
rfemur  -12.7949419 15.59078979 13.5060215
rtibia  -0.768003583 0.4766978323 20.71832085
rfoot  -0.3655910194 -19.57730293 -39.13328171
rtoes  4.133481781 19.5853329 -102.1662321
lfemur  -10.24533367 -16.74941635 -18.42370415
ltibia  1.520831704 0.8254060149 16.05395126
lfoot  0.5505921841 -27.62851906 34.5780983
ltoes  -8.730316873 -18.06454556 -116.3457101
4
root  34.99168937 36.52216994 -14.78256766 9.618180275 -0.7530372143 2.843302011
lowerback  -8.031359673 0.3703199625 1.297439933
upperback  -3.767952442 0.08604180068 -2.607274532
thorax  0.6160370111 -0.1415850073 -3.43772006
lowerneck  -15.3366003 2.370049953 1.845360041
upperneck  17.04450035 1.76067996 3.806109905
head  7.781420231 1.216750026 1.134150028
lclavicle  0 -4.497500157e-015 -2.743230041e-014
lhumerus  -44.24940109 25.12140083 71.229599
lradius  -0.4475172758 -6.507048965e-006 28.89139938
lwrist  4.824992743e-007 -3.790274832e-007 -27.84670067
lhand  -4.412474444e-031 -36.8451004 -10.40429974
lfingers  90 7.125020027 -90
lthumb  94.73315096 -25.24698361 100.9857853
rclavicle  0 -4.497500157e-015 -2.743230041e-014
rhumerus  -45.67639923 -29.65280151 -65.97989655
rradius  -5.16745672e-007 2.214343908e-008 36.96080017
rwrist  1.129822067e-006 0.001802438172 -142.0619965
rhand  -1.767773088e-031 -2.865639925 -7.639100075
rfingers  -90 -7.125020027 -90
rthumb  -86.60290143 -8.007207182 -66.91926836
rfemur  -12.79410458 15.56232166 13.48539257
rtibia  -0.7586564422 0.456443876 20.68841553
rfoot  -0.3630084097 -19.60344124 -39.12861252
rtoes  4.116659007 19.5887426 -102.1160506
lfemur  -10.25684452 -16.77365685 -18.43671608
ltibia  1.523148537 0.8174986839 16.06396484
lfoot  0.5567708015 -27.62235451 34.59228516
ltoes  -8.709355485 -18.07439955 -116.2781298
